<?xml version="1.0" encoding="utf-8"?>
<!-- Generator: Adobe Illustrator 16.0.0, SVG Export Plug-In . SVG Version: 6.00 Build 0)  -->
<!DOCTYPE svg PUBLIC "-//W3C//DTD SVG 1.1//EN" "http://www.w3.org/Graphics/SVG/1.1/DTD/svg11.dtd">
<svg version="1.1" id="Layer_1" xmlns="http://www.w3.org/2000/svg" xmlns:xlink="http://www.w3.org/1999/xlink" x="0px" y="0px"
	 width="47.823px" height="18.395px" viewBox="0 0 47.823 18.395" enable-background="new 0 0 47.823 18.395" xml:space="preserve">
<g>
	<g>
		<g>
			<g>
				<path fill="#F04D23" d="M47.211,15.086c-0.409,0.409-0.953,0.613-1.631,0.613s-1.222-0.204-1.63-0.613
					c-0.409-0.408-0.613-0.952-0.613-1.63s0.204-1.221,0.613-1.63c0.408-0.408,0.952-0.613,1.63-0.613s1.222,0.205,1.631,0.613
					c0.408,0.409,0.612,0.952,0.612,1.63S47.619,14.678,47.211,15.086z"/>
			</g>
		</g>
		<g>
			<path fill="#2E307B" d="M14.734,12.425c0.002-0.04,0.004-0.08,0.005-0.12l-0.005-0.012V12.425z"/>
			<path fill="#2E307B" d="M24.045,12.473c0-0.058,0.006-0.111,0.007-0.168l-0.005-0.012c0-4.008-1.396-6.012-4.188-6.012
				c-0.997,0-1.979,0.314-2.946,0.942s-1.749,1.461-2.348,2.497c0,0-1.795-3.439-4.008-3.439c-0.938,0-1.875,0.314-2.812,0.942
				C6.809,7.852,6.041,8.685,5.443,9.721V6.58H0.448L0,7.029l0.328,0.209c0.578,0.34,1.047,0.973,1.406,1.899
				c0.358,0.927,0.538,1.97,0.538,3.126v1.555c0,0.897-0.18,1.65-0.538,2.259c-0.359,0.608-0.828,0.962-1.406,1.062L0,17.168
				l0.448,1.077h4.978H7.25c0.015-0.03,0.051-0.112,0.098-0.224c-1.265-1.479-1.911-3.323-1.922-5.497v-0.1
				c0.002-0.04,0.004-0.08,0.005-0.12l-0.005-0.012v-0.56h0.018v-0.667c0.438-0.777,1.002-1.4,1.689-1.869
				c0.688-0.468,1.381-0.702,2.079-0.702c1.555,0,2.333,1.266,2.333,3.798v1.525c0,0.897-0.18,1.65-0.539,2.259
				c-0.358,0.608-0.827,0.962-1.405,1.062l-0.329,0.029l0.448,1.077h5.015h1.824c0.015-0.03,0.051-0.112,0.098-0.224
				c-1.265-1.479-1.911-3.323-1.922-5.497v0.129c-0.001-0.062-0.015-1.379-0.05-1.766c0.459-0.737,1.037-1.321,1.735-1.75
				c0.697-0.429,1.396-0.643,2.094-0.643c1.555,0,2.333,1.266,2.333,3.798v1.525c0,0.897-0.18,1.65-0.539,2.259
				c-0.358,0.608-0.827,0.962-1.405,1.062l-0.329,0.029l0.448,1.077h6.85c0.015-0.03,0.051-0.112,0.098-0.224
				C24.694,16.53,24.045,14.669,24.045,12.473z"/>
		</g>
		<path fill="#2E307B" d="M41.992,16.903c-0.614-0.613-0.921-1.43-0.921-2.447c0-0.094,0.005-1.333,0.005-1.685V0h-5.024
			l-0.449,0.449l0.329,0.209c0.578,0.34,1.047,0.973,1.406,1.899c0.358,0.927,0.538,1.97,0.538,3.126V6.79
			c-1.156-0.339-2.442-0.509-3.858-0.509c-2.174,0-3.839,0.559-4.995,1.675c-1.156,1.117-1.734,2.622-1.734,4.517
			c0,1.774,0.554,3.205,1.66,4.292s2.576,1.63,4.411,1.63c0.897,0,1.755-0.174,2.572-0.523c0.817-0.349,1.466-0.813,1.944-1.391
			v1.765h5.503c0.024-0.062,0.114-0.236,0.255-0.5C42.983,17.622,42.434,17.346,41.992,16.903z M37.876,14.925
			c-0.499,0.658-1.037,1.182-1.615,1.57s-1.106,0.584-1.585,0.584c-1.236,0-2.238-0.504-3.006-1.511s-1.151-2.328-1.151-3.963
			c0-1.356,0.333-2.428,1.002-3.216c0.668-0.787,1.63-1.181,2.886-1.181c0.817,0,1.551,0.219,2.198,0.657
			c0.648,0.439,1.072,0.978,1.271,1.615V14.925z"/>
	</g>
</g>
</svg>
